<svg baseProfile="full" height="450" version="1.1" width="600" xmlns="http://www.w3.org/2000/svg" xmlns:ev="http://www.w3.org/2001/xml-events" xmlns:xlink="http://www.w3.org/1999/xlink"><defs /><g><rect fill="#AD3F85" fill-opacity="0.15" height="126.0" width="100" x="355" y="0" /><line stroke="#AD3F85" stroke-dasharray="5 5" stroke-width="0.5" x1="355" x2="355" y1="0" y2="120" /><line stroke="#AD3F85" stroke-dasharray="5 5" stroke-width="0.5" x1="455" x2="455" y1="0" y2="120" /><line stroke="#AD3F85" stroke-width="0.75" x1="355" x2="455" y1="20" y2="20" /><text fill="#AD3F85" font-family="Helvetica" font-size="6pt" stroke="none" text-anchor="middle" x="405.0" y="18.5">Omicron</text></g><g><rect fill="#ADAFA5" fill-opacity="0.15" height="86.0" width="80" x="246" y="40" /><line stroke="#ADAFA5" stroke-width="0.75" x1="246" x2="326" y1="40" y2="40" /><text fill="#ADAFA5" font-family="Helvetica" font-size="6pt" stroke="none" text-anchor="middle" x="286.0" y="38.5">Summer</text></g><g><rect fill="#1DAFA5" fill-opacity="0.15" height="66.0" width="65" x="115" y="60" /><line stroke="#1DAFA5" stroke-width="0.75" x1="115" x2="180" y1="60" y2="60" /><text fill="#1DAFA5" font-family="Helvetica" font-size="6pt" stroke="none" text-anchor="middle" x="147.5" y="58.5">Winter</text><rect fill="#1DAFA5" fill-opacity="0.15" height="66.0" width="64" x="377" y="60" /><line stroke="#1DAFA5" stroke-width="0.75" x1="377" x2="441" y1="60" y2="60" /><text fill="#1DAFA5" font-family="Helvetica" font-size="6pt" stroke="none" text-anchor="middle" x="409.0" y="58.5">Winter</text><rect fill="#FDAFA5" fill-opacity="0.15" height="66.0" width="10" x="289" y="60" /><line stroke="#FDAFA5" stroke-width="0.75" x1="289" x2="299" y1="60" y2="60" /><text fill="#FDAFA5" font-family="Helvetica" font-size="6pt" stroke="none" text-anchor="middle" x="294.0" y="58.5">Holiday</text></g><g><rect fill="#000000" fill-opacity="0.15" height="46.0" width="14" x="395" y="80" /><line stroke="#000000" stroke-width="0.75" x1="395" x2="409" y1="80" y2="80" /><text fill="#000000" font-family="Helvetica" font-size="6pt" stroke="none" text-anchor="middle" x="402.0" y="78.5">Cold</text></g><g transform="translate(0,120)"><g><text fill="#C0C0C0" font-family="Helvetica" font-size="6pt" stroke="none" text-anchor="end" transform="rotate(220, 50, 0)" writing-mode="tb" x="50" y="-10">Sep 2020</text><text fill="#000000" font-family="Helvetica" font-size="6pt" stroke="none" text-anchor="end" transform="rotate(220, 115, 0)" writing-mode="tb" x="115" y="-10">Dec 2020</text><text fill="#000000" font-family="Helvetica" font-size="6pt" stroke="none" text-anchor="end" transform="rotate(220, 160, 0)" writing-mode="tb" x="160" y="-10">Feb 2021</text><text fill="#000000" font-family="Helvetica" font-size="6pt" stroke="none" text-anchor="end" transform="rotate(220, 180, 0)" writing-mode="tb" x="180" y="-10">Mar 2021</text><text fill="#000000" font-family="Helvetica" font-size="6pt" stroke="none" text-anchor="end" transform="rotate(220, 204, 0)" writing-mode="tb" x="204" y="-10">Apr 2021</text><text fill="#C0C0C0" font-family="Helvetica" font-size="6pt" stroke="none" text-anchor="end" transform="rotate(220, 217, 0)" writing-mode="tb" x="217" y="-10">Apr 2021</text><text fill="#000000" font-family="Helvetica" font-size="6pt" stroke="none" text-anchor="end" transform="rotate(220, 237, 0)" writing-mode="tb" x="237" y="-10">May 2021</text><text fill="#000000" font-family="Helvetica" font-size="6pt" stroke="none" text-anchor="end" transform="rotate(220, 246, 0)" writing-mode="tb" x="246" y="-10">Jun 2021</text><text fill="#000000" font-family="Helvetica" font-size="6pt" stroke="none" text-anchor="end" transform="rotate(220, 289, 0)" writing-mode="tb" x="289" y="-10">Aug 2021</text><text fill="#000000" font-family="Helvetica" font-size="6pt" stroke="none" text-anchor="end" transform="rotate(220, 299, 0)" writing-mode="tb" x="299" y="-10">Aug 2021</text><text fill="#000000" font-family="Helvetica" font-size="6pt" stroke="none" text-anchor="end" transform="rotate(220, 326, 0)" writing-mode="tb" x="326" y="-10">Sep 2021</text><text fill="#000000" font-family="Helvetica" font-size="6pt" stroke="none" text-anchor="end" transform="rotate(220, 355, 0)" writing-mode="tb" x="355" y="-10">Nov 2021</text><text fill="#000000" font-family="Helvetica" font-size="6pt" stroke="none" text-anchor="end" transform="rotate(220, 377, 0)" writing-mode="tb" x="377" y="-10">Dec 2021</text><text fill="#C0C0C0" font-family="Helvetica" font-size="6pt" stroke="none" text-anchor="end" transform="rotate(220, 383, 0)" writing-mode="tb" x="383" y="-10">Dec 2021</text><text fill="#000000" font-family="Helvetica" font-size="6pt" stroke="none" text-anchor="end" transform="rotate(220, 395, 0)" writing-mode="tb" x="395" y="-10">Dec 2021</text><text fill="#000000" font-family="Helvetica" font-size="6pt" stroke="none" text-anchor="end" transform="rotate(220, 409, 0)" writing-mode="tb" x="409" y="-10">Jan 2022</text><text fill="#000000" font-family="Helvetica" font-size="6pt" stroke="none" text-anchor="end" transform="rotate(220, 441, 0)" writing-mode="tb" x="441" y="-10">Mar 2022</text><text fill="#000000" font-family="Helvetica" font-size="6pt" stroke="none" text-anchor="end" transform="rotate(220, 455, 0)" writing-mode="tb" x="455" y="-10">Mar 2022</text><text fill="#C0C0C0" font-family="Helvetica" font-size="6pt" stroke="none" text-anchor="end" transform="rotate(220, 550, 0)" writing-mode="tb" x="550" y="-10">Jul 2022</text></g><g><line stroke="#000000" stroke-width="3" x1="0" x2="600" y1="0" y2="0" /><line stroke="#000000" stroke-width="2" x1="50" x2="50" y1="-5" y2="5" /><line stroke="#000000" stroke-width="2" x1="550" x2="550" y1="-5" y2="5" /><line stroke="#000000" stroke-width="2" x1="217" x2="217" y1="-5" y2="5" /><line stroke="#000000" stroke-width="2" x1="383" x2="383" y1="-5" y2="5" /></g><g><path d="M160,0 L160,-15 L150,-15" fill="none" stroke="#DD0000" stroke-width="1" /><text fill="#DD0000" font-family="Helvetica" font-size="6pt" stroke="none" text-anchor="end" x="147" y="-13.5">Event</text><circle cx="160" cy="0" fill="white" r="4" stroke="#DD0000" stroke-width="1" /><path d="M204,0 L204,-15 L194,-15" fill="none" stroke="#000000" stroke-width="1" /><text fill="#000000" font-family="Helvetica" font-size="6pt" stroke="none" text-anchor="end" x="191" y="-13.5">Delta</text><circle cx="204" cy="0" fill="white" r="4" stroke="#000000" stroke-width="1" /><path d="M237,0 L237,-45 L227,-45" fill="none" stroke="#000000" stroke-width="1" /><text fill="#000000" font-family="Helvetica" font-size="6pt" stroke="none" text-anchor="end" x="224" y="-43.5">ICRA2021</text><circle cx="237" cy="0" fill="white" r="4" stroke="#000000" stroke-width="1" /></g></g></svg>
